<svg width="40" height="40" viewBox="0 0 40 40" fill="none" xmlns="http://www.w3.org/2000/svg">
<path fill-rule="evenodd" clip-rule="evenodd" d="M4.19509 13.8272C3.91024 9.26954 7.52984 5.41666 12.0963 5.41666H19.1667C21.2377 5.41666 22.9167 7.09559 22.9167 9.16666C22.9167 9.85701 23.4763 10.4167 24.1667 10.4167H28.0773C32.523 10.4167 36.0313 14.1872 35.7191 18.6149V20.8333C35.7191 20.9851 35.692 21.1306 35.6424 21.2652C36.3289 22.4753 36.5162 23.9776 35.9716 25.437C35.9714 25.4374 35.9713 25.4378 35.9711 25.4381L34.1056 30.437C34.0813 30.5022 34.0515 30.5653 34.0167 30.6256C32.6439 33.0003 30.076 34.5833 27.1598 34.5833H12.9297C10.0106 34.5833 7.44443 32.9982 6.07277 30.6256C5.47778 29.5965 5.10708 28.419 5.02843 27.1605L4.19509 13.8272ZM12.9297 32.0833H27.1598C29.1177 32.0833 30.8489 31.0408 31.8019 29.4598L33.6289 24.5641C33.6291 24.5637 33.6292 24.5633 33.6293 24.5629C34.228 22.9588 33.0418 21.25 31.3296 21.25H25.0342C22.935 21.25 21.3383 19.3651 21.6834 17.2945C21.7745 16.7477 21.3529 16.25 20.7986 16.25H15.4971C12.9086 16.25 10.6858 18.0908 10.2035 20.634L9.80544 22.7329L9.80004 22.7597L8.8813 27.0846C8.33441 29.659 10.2978 32.0833 12.9297 32.0833ZM24.1494 17.7055C24.0583 18.2523 24.4799 18.75 25.0342 18.75H31.3296C32.0065 18.75 32.6427 18.8823 33.2191 19.1194V18.569C33.2191 18.537 33.2203 18.505 33.2227 18.4731C33.4533 15.4758 31.0834 12.9167 28.0773 12.9167H24.1667C22.0956 12.9167 20.4167 11.2377 20.4167 9.16666C20.4167 8.4763 19.857 7.91666 19.1667 7.91666H12.0963C8.97189 7.91666 6.49533 10.5528 6.69022 13.6712L7.25507 22.7088L7.35177 22.2536L7.74727 20.1682C8.4534 16.4449 11.7075 13.75 15.4971 13.75H20.7986C22.8977 13.75 24.4945 15.6349 24.1494 17.7055Z" fill="white"/>
</svg>
