<svg width="19" height="20" viewBox="0 0 19 20" fill="none" xmlns="http://www.w3.org/2000/svg">
<path fill-rule="evenodd" clip-rule="evenodd" d="M8 10C10.7614 10 13 7.76142 13 5C13 2.23858 10.7614 0 8 0C5.23858 0 3 2.23858 3 5C3 7.76142 5.23858 10 8 10ZM8 8.5C9.933 8.5 11.5 6.933 11.5 5C11.5 3.067 9.933 1.5 8 1.5C6.067 1.5 4.5 3.067 4.5 5C4.5 6.933 6.067 8.5 8 8.5Z" fill="white"/>
<path d="M16 6.25C16.4142 6.25 16.75 6.58579 16.75 7V8.25H18C18.4142 8.25 18.75 8.58579 18.75 9C18.75 9.41421 18.4142 9.75 18 9.75H16.75V11C16.75 11.4142 16.4142 11.75 16 11.75C15.5858 11.75 15.25 11.4142 15.25 11V9.75H14C13.5858 9.75 13.25 9.41421 13.25 9C13.25 8.58579 13.5858 8.25 14 8.25H15.25V7C15.25 6.58579 15.5858 6.25 16 6.25Z" fill="white"/>
<path fill-rule="evenodd" clip-rule="evenodd" d="M16 15.5C16 17.9853 12.4183 20 8 20C3.58172 20 0 17.9853 0 15.5C0 13.0147 3.58172 11 8 11C12.4183 11 16 13.0147 16 15.5ZM14.5 15.5C14.5 15.96 14.1527 16.6821 12.9215 17.3746C11.7373 18.0407 10.0003 18.5 8 18.5C5.99969 18.5 4.26273 18.0407 3.07854 17.3746C1.84733 16.6821 1.5 15.96 1.5 15.5C1.5 15.04 1.84733 14.3179 3.07854 13.6254C4.26273 12.9593 5.99969 12.5 8 12.5C10.0003 12.5 11.7373 12.9593 12.9215 13.6254C14.1527 14.3179 14.5 15.04 14.5 15.5Z" fill="white"/>
</svg>
