<svg width="40" height="40" viewBox="0 0 40 40" fill="none" xmlns="http://www.w3.org/2000/svg">
<path fill-rule="evenodd" clip-rule="evenodd" d="M5 36.25C3.38916 36.25 2.08333 34.9442 2.08333 33.3333V21.6667C2.08333 20.0558 3.38916 18.75 4.99999 18.75H12.0833V6.66667C12.0833 5.05584 13.3892 3.75 15 3.75H25C26.6108 3.75 27.9167 5.05584 27.9167 6.66667V12.0833H35C36.6108 12.0833 37.9167 13.3892 37.9167 15V33.3333C37.9167 34.9442 36.6108 36.25 35 36.25H5ZM15 6.25C14.7699 6.25 14.5833 6.43655 14.5833 6.66667V33.75H25.4167V6.66667C25.4167 6.43655 25.2301 6.25 25 6.25H15ZM27.9167 14.5833H35C35.2301 14.5833 35.4167 14.7699 35.4167 15V33.3333C35.4167 33.5635 35.2301 33.75 35 33.75H27.9167V14.5833ZM12.0833 21.25H4.99999C4.76988 21.25 4.58333 21.4365 4.58333 21.6667V33.3333C4.58333 33.5635 4.76988 33.75 5 33.75H12.0833V21.25Z" fill="white"/>
</svg>
