<svg width="40" height="40" viewBox="0 0 40 40" fill="none" xmlns="http://www.w3.org/2000/svg">
<path fill-rule="evenodd" clip-rule="evenodd" d="M12.5143 4.05568C12.8963 3.72443 13.4401 3.65585 13.8923 3.88193L16.6669 5.26911L19.441 3.88197C19.7929 3.70599 20.2071 3.70599 20.5591 3.88197L23.3331 5.26911L26.1077 3.88193C26.5599 3.65585 27.1038 3.72443 27.4857 4.05568C27.8676 4.38694 28.0124 4.91565 27.8525 5.39527L27.1113 7.61903C27.658 7.40522 28.2319 7.20757 28.8096 7.04612C29.6665 6.80662 30.5786 6.6334 31.4492 6.62504C32.3099 6.61678 33.2406 6.76898 34.027 7.29326C34.6014 7.6762 34.7566 8.45228 34.3737 9.0267C33.9907 9.60111 33.2146 9.75632 32.6402 9.37338C32.4266 9.23099 32.0587 9.11931 31.4732 9.12493C30.8975 9.13046 30.2158 9.24891 29.4825 9.45386C28.9107 9.61365 28.3359 9.81789 27.7935 10.0383C32.4215 13.0643 35.1914 19.0566 34.9992 24.6264C34.8862 27.9051 33.7501 31.1426 31.2744 33.6182C28.7939 36.0988 25.0869 37.6967 20.0543 37.9155C20.0181 37.917 19.9819 37.917 19.9457 37.9155C14.9132 37.6967 11.2062 36.0988 8.7256 33.6182C6.24992 31.1426 5.11388 27.9051 5.00079 24.6264C4.79197 18.5723 8.08265 12.0189 13.4552 9.31849L12.1475 5.39527C11.9876 4.91565 12.1324 4.38694 12.5143 4.05568ZM14.9415 11.379C10.4002 13.4373 7.31209 19.1123 7.49931 24.5402C7.59461 27.3032 8.54195 29.8991 10.4934 31.8505C12.4321 33.7892 15.4793 35.2086 20 35.4154C24.5208 35.2086 27.5679 33.7892 29.5067 31.8505C31.4581 29.8991 32.4054 27.3032 32.5007 24.5402C32.6888 19.0878 29.5719 13.3861 24.997 11.3514C20.6441 13.045 16.8646 12.2717 14.9415 11.379ZM23.9965 9.05767C20.3694 10.4363 17.3491 9.7316 16.0267 9.12716L15.4735 7.46747L16.108 7.78471C16.4599 7.96065 16.8741 7.96064 17.226 7.78467L20 6.39755L22.774 7.78467C23.1259 7.96064 23.5401 7.96065 23.8921 7.78471L24.5266 7.46747L23.9965 9.05767Z" fill="white"/>
<path fill-rule="evenodd" clip-rule="evenodd" d="M19.8413 17.2917C20.4166 17.2917 20.8829 17.758 20.8829 18.3333V18.3444C22.845 18.5478 24.375 20.2063 24.375 22.2222C24.375 22.7975 23.9086 23.2639 23.3333 23.2639C22.758 23.2639 22.2917 22.7975 22.2917 22.2222C22.2917 21.3594 21.6898 20.6371 20.8829 20.4525V23.3237C22.8161 23.3503 24.375 24.9256 24.375 26.8651C24.375 28.8045 22.8161 30.3799 20.8829 30.4064C20.8778 30.9773 20.4134 31.4385 19.8413 31.4385C19.266 31.4385 18.7996 30.9721 18.7996 30.3968V30.3396C16.9924 30.0001 15.625 28.4137 15.625 26.5079C15.625 25.9326 16.0914 25.4663 16.6667 25.4663C17.242 25.4663 17.7083 25.9326 17.7083 26.5079C17.7083 27.2532 18.1574 27.8935 18.7996 28.1732V25.3879C17.0161 25.2043 15.625 23.6971 15.625 21.8651C15.625 20.033 17.0161 18.5258 18.7996 18.3422V18.3333C18.7996 17.758 19.266 17.2917 19.8413 17.2917ZM18.7996 20.4533C18.1719 20.6161 17.7083 21.1864 17.7083 21.8651C17.7083 22.5437 18.1719 23.1141 18.7996 23.2768V20.4533ZM20.8829 25.4076V28.3226C21.6654 28.2964 22.2917 27.6539 22.2917 26.8651C22.2917 26.0763 21.6654 25.4337 20.8829 25.4076Z" fill="white"/>
</svg>
