<svg width="40" height="40" viewBox="0 0 40 40" fill="none" xmlns="http://www.w3.org/2000/svg">
<path fill-rule="evenodd" clip-rule="evenodd" d="M31.4617 28.3278C30.4378 25.1277 25.6955 22.7081 19.9999 22.7081C14.3045 22.7081 9.56224 25.1277 8.53817 28.3276C7.99329 27.579 7.51997 26.7749 7.12828 25.9254C6.85522 25.3332 6.20619 24.9899 5.5763 25.1587C4.8689 25.3483 4.46828 26.1018 4.76609 26.7708C6.10388 29.7763 8.30496 32.3126 11.0544 34.065C12.7407 35.2578 15.0931 36.1084 17.7724 36.4155C17.9115 36.5007 18.0721 36.5573 18.249 36.5758C18.8244 36.6359 19.4086 36.6667 20 36.6667C22.0681 36.6667 24.0482 36.29 25.8755 35.6015C27.0426 35.1974 28.0806 34.6765 28.944 34.066C33.587 31.1076 36.6667 25.9134 36.6667 20C36.6667 10.7953 29.2048 3.33334 20 3.33334C19.4086 3.33334 18.8245 3.36414 18.249 3.42422C17.5201 3.50032 17.0672 4.22428 17.2568 4.93216C17.4255 5.56145 18.0463 5.9519 18.695 5.89265C19.1248 5.8534 19.56 5.83334 20 5.83334C27.824 5.83334 34.1667 12.176 34.1667 20C34.1667 23.1123 33.163 25.9903 31.4617 28.3278ZM25.0083 33.256C23.5858 33.742 21.8778 34.0414 19.9999 34.0414C17.797 34.0414 15.8278 33.6294 14.2793 32.9874C14.215 32.9438 14.1466 32.9049 14.0745 32.8717C13.5047 32.6089 12.9553 32.3094 12.4293 31.9762C11.195 31.0861 10.8333 30.2113 10.8333 29.6247C10.8333 28.9528 11.3079 27.9026 13.0253 26.8844C14.6882 25.8986 17.1483 25.2081 19.9999 25.2081C22.8516 25.2081 25.3117 25.8986 26.9745 26.8844C28.6919 27.9026 29.1665 28.9528 29.1665 29.6247C29.1665 30.2115 28.8046 31.0867 27.5694 31.9771C26.7667 32.4855 25.9094 32.9153 25.0083 33.256Z" fill="white"/>
<path d="M4.93215 22.7431C4.22428 22.9328 3.50031 22.4798 3.42422 21.7509C3.36414 21.1755 3.33334 20.5914 3.33334 20C3.33334 19.4086 3.36415 18.8244 3.42424 18.2489C3.50034 17.52 4.2243 17.067 4.93217 17.2567C5.56146 17.4253 5.95192 18.0461 5.89266 18.6949C5.8534 19.1247 5.83334 19.56 5.83334 20C5.83334 20.44 5.8534 20.8752 5.89264 21.3049C5.95189 21.9537 5.56144 22.5745 4.93215 22.7431Z" fill="white"/>
<path d="M5.57638 14.8411C4.86898 14.6516 4.46832 13.8981 4.76614 13.2291C5.24543 12.1523 5.83554 11.1358 6.52196 10.1939C6.95304 9.60246 7.80527 9.57294 8.3228 10.0905C8.78395 10.5516 8.81107 11.2854 8.43396 11.8175C7.93279 12.5246 7.49484 13.2797 7.12834 14.0745C6.85527 14.6667 6.20626 15.0099 5.57638 14.8411Z" fill="white"/>
<path d="M10.0906 8.32272C9.57305 7.80518 9.60258 6.95295 10.1941 6.52188C11.1359 5.83546 12.1525 5.24537 13.2292 4.76608C13.8983 4.46827 14.6517 4.86893 14.8412 5.57633C15.01 6.20622 14.6668 6.85523 14.0746 7.12829C13.2798 7.49478 12.5247 7.93272 11.8176 8.43388C11.2855 8.81099 10.5517 8.78387 10.0906 8.32272Z" fill="white"/>
<path fill-rule="evenodd" clip-rule="evenodd" d="M19.9999 21.2499C24.0269 21.2499 27.2915 17.9853 27.2915 13.9583C27.2915 9.93124 24.0269 6.66668 19.9999 6.66668C15.9728 6.66668 12.7082 9.93124 12.7082 13.9583C12.7082 17.9853 15.9728 21.2499 19.9999 21.2499ZM19.9999 18.7499C22.6462 18.7499 24.7915 16.6046 24.7915 13.9583C24.7915 11.312 22.6462 9.16668 19.9999 9.16668C17.3535 9.16668 15.2082 11.312 15.2082 13.9583C15.2082 16.6046 17.3535 18.7499 19.9999 18.7499Z" fill="white"/>
</svg>
